<svg width="20" height="20" viewBox="0 0 20 20" fill="none" xmlns="http://www.w3.org/2000/svg">
<path d="M10 0C4.47715 0 0 4.47715 0 10C0 15.5229 4.47715 20 10 20C15.5229 20 20 15.5229 20 10C20 4.47715 15.5229 0 10 0Z" fill="url(#paint0_linear_6002_20)"/>
<path fill-rule="evenodd" clip-rule="evenodd" d="M13.7071 7.29289C14.0976 7.68342 14.0976 8.31658 13.7071 8.70711L9.70711 12.7071C9.31658 13.0976 8.68342 13.0976 8.29289 12.7071L6.29289 10.7071C5.90237 10.3166 5.90237 9.68342 6.29289 9.29289C6.68342 8.90237 7.31658 8.90237 7.70711 9.29289L9 10.5858L12.2929 7.29289C12.6834 6.90237 13.3166 6.90237 13.7071 7.29289Z" fill="white"/>
<defs>
<linearGradient id="paint0_linear_6002_20" x1="19.7441" y1="0.767592" x2="0.682303" y2="19.1045" gradientUnits="userSpaceOnUse">
<stop stop-color="#8C9EBE"/>
<stop offset="1" stop-color="#E2E5EA"/>
</linearGradient>
</defs>
</svg>
