<svg width="413" height="175" viewBox="0 0 413 175" fill="none" xmlns="http://www.w3.org/2000/svg">
<rect width="413" height="175" fill="url(#paint0_linear_6018_13)"/>
<mask id="mask0_6018_13" style="mask-type:alpha" maskUnits="userSpaceOnUse" x="0" y="0" width="413" height="175">
<path d="M0 24C0 10.7452 10.7452 0 24 0H389C402.255 0 413 10.7452 413 24V175H0V24Z" fill="url(#paint1_linear_6018_13)"/>
</mask>
<g mask="url(#mask0_6018_13)">
<g opacity="0.3">
<path d="M450.505 -35.6323L440.585 -36.6881C432.025 -37.5313 434.572 -48.2322 434.481 -53.9651C434.526 -56.3241 434.015 -58.6606 432.992 -60.7865C431.968 -62.9123 430.459 -64.7679 428.587 -66.2039C426.715 -67.6399 424.532 -68.6162 422.214 -69.054C419.895 -69.4918 417.506 -69.379 415.239 -68.7246L405.668 -65.8587C403.945 -65.3529 402.095 -65.5136 400.485 -66.3089C398.875 -67.1042 397.623 -68.476 396.978 -70.1516L393.403 -79.4993C392.543 -81.6967 391.178 -83.661 389.419 -85.2338C387.66 -86.8066 385.556 -87.9439 383.276 -88.5539C380.997 -89.1638 378.606 -89.2293 376.296 -88.7451C373.986 -88.261 371.823 -87.2407 369.98 -85.7665L362.21 -79.4584C355.455 -74.042 349.86 -83.3406 345.676 -87.3623C344.037 -89.0553 342.023 -90.3398 339.797 -91.1124C337.571 -91.8851 335.194 -92.1243 332.858 -91.8109C330.523 -91.4975 328.293 -90.6401 326.349 -89.3079C324.405 -87.9756 322.801 -86.2056 321.666 -84.1404L316.905 -75.3397C316.043 -73.7696 314.623 -72.5794 312.927 -72.0038C311.231 -71.4281 309.38 -71.5088 307.74 -72.2299L298.6 -76.3823C296.438 -77.3283 294.084 -77.753 291.728 -77.622C289.372 -77.491 287.08 -76.808 285.036 -75.6281C282.992 -74.4483 281.255 -72.8045 279.963 -70.8296C278.672 -68.8547 277.863 -66.6039 277.601 -64.2588L276.545 -54.3389C275.696 -45.7887 264.99 -48.3196 259.267 -48.234C256.908 -48.2814 254.571 -47.7737 252.444 -46.7516C250.317 -45.7296 248.46 -44.2219 247.023 -42.3503C245.586 -40.4786 244.609 -38.2954 244.171 -35.9767C243.733 -33.658 243.846 -31.2689 244.501 -29.002L247.372 -19.4212C247.881 -17.6983 247.721 -15.847 246.926 -14.2364C246.13 -12.6258 244.756 -11.3743 243.079 -10.7312L233.731 -7.15628C231.52 -6.30201 229.542 -4.93777 227.958 -3.1746C226.374 -1.41142 225.228 0.700861 224.615 2.99033C224.001 5.2798 223.937 7.68177 224.427 10.0007C224.917 12.3197 225.948 14.4901 227.436 16.3353L233.738 24.0949C239.17 30.8541 229.855 36.4448 225.833 40.6288C224.14 42.2681 222.856 44.2819 222.083 46.5081C221.31 48.7344 221.071 51.1109 221.384 53.4465C221.697 55.7821 222.555 58.0116 223.887 59.9553C225.219 61.8991 226.989 63.503 229.054 64.6379L237.845 69.4047C239.419 70.263 240.613 71.6819 241.189 73.3797C241.765 75.0774 241.681 76.9297 240.955 78.5687L236.909 87.6876C235.963 89.8493 235.538 92.2031 235.669 94.5592C235.8 96.9152 236.483 99.2074 237.663 101.251C238.842 103.294 240.486 105.032 242.461 106.323C244.436 107.615 246.687 108.424 249.032 108.685L258.946 109.731C267.506 110.574 264.975 121.279 265.066 127.012C265.019 129.371 265.526 131.709 266.548 133.836C267.57 135.962 269.078 137.819 270.95 139.256C272.821 140.693 275.005 141.67 277.323 142.108C279.642 142.546 282.031 142.433 284.298 141.777L293.879 138.906C295.602 138.403 297.451 138.565 299.06 139.36C300.67 140.155 301.922 141.525 302.569 143.199L306.144 152.546C307.003 154.737 308.364 156.695 310.117 158.264C311.87 159.834 313.966 160.97 316.238 161.583C318.509 162.196 320.893 162.268 323.197 161.793C325.502 161.318 327.663 160.309 329.507 158.848L337.277 152.54C344.064 147.132 349.606 156.408 353.805 160.434C355.44 162.136 357.453 163.431 359.68 164.212C361.907 164.993 364.287 165.24 366.627 164.932C368.967 164.625 371.202 163.771 373.152 162.44C375.101 161.11 376.711 159.339 377.85 157.272L382.611 148.471C383.472 146.899 384.891 145.707 386.588 145.131C388.285 144.556 390.136 144.638 391.776 145.361L400.894 149.407C403.056 150.353 405.41 150.777 407.766 150.646C410.122 150.515 412.415 149.832 414.458 148.653C416.502 147.473 418.239 145.829 419.531 143.854C420.822 141.879 421.631 139.628 421.893 137.283L422.939 127.369C423.793 118.803 434.494 121.35 440.217 121.264C442.577 121.311 444.915 120.803 447.042 119.78C449.169 118.757 451.026 117.248 452.462 115.375C453.899 113.502 454.875 111.318 455.312 108.999C455.749 106.679 455.634 104.289 454.977 102.022L452.112 92.4514C451.609 90.7285 451.771 88.8796 452.566 87.2704C453.361 85.6612 454.731 84.409 456.405 83.7615L465.753 80.1865C467.949 79.3236 469.912 77.9575 471.484 76.198C473.055 74.4385 474.192 72.3347 474.803 70.0558C475.414 67.7769 475.481 65.3866 475 63.077C474.518 60.7674 473.502 58.603 472.031 56.7579L465.723 48.9883C460.297 42.2391 469.596 36.6442 473.618 32.4602C475.318 30.8241 476.611 28.8116 477.391 26.5848C478.171 24.358 478.417 21.9791 478.109 19.6398C477.802 17.3005 476.949 15.0662 475.62 13.1167C474.291 11.1673 472.522 9.55735 470.457 8.4165L461.656 3.65546C460.083 2.79403 458.89 1.37359 458.313 -0.325065C457.736 -2.02373 457.817 -3.87699 458.541 -5.51854L462.593 -14.6274C463.54 -16.7869 463.966 -19.1387 463.838 -21.4932C463.71 -23.8477 463.03 -26.1391 461.854 -28.1829C460.678 -30.2267 459.039 -31.9656 457.067 -33.2595C455.096 -34.5534 452.848 -35.3662 450.505 -35.6323ZM455.459 -17.8372L451.407 -8.72834C449.882 -5.27874 449.708 -1.38208 450.921 2.18951C452.133 5.76109 454.642 8.74697 457.952 10.5555L466.753 15.3165C467.735 15.8579 468.576 16.6225 469.208 17.5487C469.84 18.4749 470.245 19.5367 470.391 20.6484C470.537 21.7601 470.42 22.8906 470.049 23.9487C469.677 25.0067 469.062 25.9626 468.254 26.7394L460.976 33.6011C458.25 36.2036 456.6 39.7347 456.352 43.4956C456.105 47.2565 457.278 50.9732 459.64 53.9102C461.748 57.2153 469.273 63.2451 467.298 68.0029C466.634 73.1877 457.259 74.504 453.625 76.389C450.102 77.7371 447.217 80.3653 445.548 83.748C443.878 87.1308 443.547 91.0189 444.621 94.6351L447.492 104.216C447.805 105.294 447.861 106.431 447.653 107.534C447.446 108.638 446.981 109.677 446.297 110.568C445.614 111.458 444.73 112.176 443.718 112.661C442.705 113.147 441.593 113.388 440.47 113.364L430.468 113.087C426.7 113.001 423.037 114.332 420.203 116.818C417.37 119.304 415.573 122.762 415.167 126.51L414.121 136.424C413.961 137.521 413.555 138.567 412.933 139.484C412.311 140.402 411.489 141.166 410.529 141.721C409.569 142.275 408.496 142.604 407.39 142.684C406.285 142.765 405.175 142.593 404.146 142.183L395.027 138.138C391.57 136.603 387.663 136.425 384.081 137.638C380.499 138.851 377.504 141.367 375.691 144.686L370.929 153.487C370.398 154.479 369.637 155.33 368.711 155.969C367.784 156.608 366.718 157.017 365.602 157.161C360.559 158.516 355.745 150.363 352.625 147.722C350.02 144.997 346.487 143.349 342.725 143.105C338.963 142.861 335.246 144.038 332.311 146.403L324.551 152.706C323.674 153.406 322.645 153.89 321.546 154.119C320.448 154.349 319.311 154.317 318.227 154.027C317.143 153.736 316.142 153.195 315.306 152.447C314.469 151.7 313.82 150.766 313.411 149.721L309.836 140.373C308.474 136.859 305.842 133.984 302.461 132.318C299.08 130.652 295.197 130.316 291.58 131.375C287.73 132.056 279.276 136.697 275.631 133.055C271.099 130.458 273.465 121.286 273.132 117.208C273.221 113.439 271.891 109.775 269.405 106.941C266.919 104.107 263.458 102.311 259.71 101.908L249.796 100.863C248.683 100.736 247.615 100.35 246.679 99.7357C245.742 99.1217 244.962 98.2965 244.402 97.3265C243.842 96.3565 243.517 95.2687 243.454 94.1505C243.39 93.0322 243.59 91.9146 244.037 90.8874L248.082 81.7686C249.596 78.3256 249.763 74.4404 248.552 70.8799C247.341 67.3194 244.839 64.3423 241.541 62.5362C238.33 60.2932 229.076 57.6029 229.066 52.4482C227.701 47.4111 235.865 42.5913 238.49 39.4664C241.23 36.8724 242.891 33.3391 243.138 29.5735C243.386 25.808 242.203 22.0878 239.825 19.1573C237.718 15.8521 230.199 9.8324 232.178 5.05886C232.854 -0.106036 242.217 -1.44231 245.846 -3.31156C249.362 -4.67448 252.238 -7.30702 253.907 -10.6886C255.575 -14.0701 255.913 -17.9544 254.855 -21.5734L251.989 -31.1443C251.679 -32.2223 251.625 -33.3583 251.834 -34.4607C252.043 -35.5631 252.507 -36.6011 253.19 -37.4911C253.873 -38.3812 254.756 -39.0983 255.767 -39.5848C256.778 -40.0713 257.889 -40.3136 259.011 -40.2922L269.008 -40.0254C272.775 -39.9375 276.439 -41.2669 279.273 -43.7506C282.108 -46.2343 283.907 -49.6914 284.314 -53.4379C285.157 -57.2762 284.097 -66.8523 288.866 -68.821C293.004 -72.0212 300.589 -66.2789 304.465 -65.0718C307.913 -63.5489 311.807 -63.3769 315.376 -64.59C318.945 -65.8031 321.928 -68.3127 323.733 -71.6214C325.987 -74.8375 328.667 -84.0859 333.822 -84.0961C338.869 -85.4674 343.673 -77.3082 346.804 -74.6734C349.406 -71.9471 352.937 -70.297 356.698 -70.0498C360.459 -69.8026 364.176 -70.9762 367.113 -73.3384C370.419 -75.4462 376.443 -82.9809 381.207 -80.9963C386.397 -80.3223 387.713 -70.9474 389.583 -67.3183C390.932 -63.7941 393.562 -60.9093 396.947 -59.241C400.332 -57.5727 404.222 -57.244 407.839 -58.3206L417.42 -61.1923C418.497 -61.5043 419.632 -61.5588 420.734 -61.3513C421.836 -61.1438 422.874 -60.6802 423.763 -59.9979C424.653 -59.3155 425.37 -58.4336 425.856 -57.4231C426.342 -56.4127 426.584 -55.3022 426.562 -54.1811L426.288 -44.1276C426.202 -40.3595 427.533 -36.6964 430.018 -33.8631C432.504 -31.0298 435.963 -29.2328 439.71 -28.8278L449.63 -27.772C450.745 -27.6554 451.817 -27.2784 452.759 -26.6715C453.702 -26.0645 454.488 -25.2446 455.055 -24.2778C455.623 -23.311 455.955 -22.2244 456.025 -21.1056C456.095 -19.9869 455.901 -18.8673 455.459 -17.8372ZM425.645 -7.27445C479.692 95.7598 336.016 178.738 273.788 80.4007C266.085 66.8018 262.139 51.3987 262.353 35.7712C262.568 20.1437 266.936 4.8544 275.009 -8.52844C283.082 -21.9113 294.57 -32.906 308.294 -40.3847C322.018 -47.8635 337.484 -51.5571 353.106 -51.0867C354.125 -51.0171 355.077 -50.5535 355.759 -49.7942C356.442 -49.0348 356.802 -48.0395 356.763 -47.0191C356.725 -45.9987 356.29 -45.0335 355.552 -44.3281C354.813 -43.6227 353.829 -43.2326 352.808 -43.2404C338.589 -43.663 324.512 -40.2971 312.022 -33.4878C299.531 -26.6784 289.076 -16.6705 281.727 -4.48966C274.379 7.69114 270.401 21.6067 270.202 35.8308C270.003 50.0549 273.59 64.076 280.595 76.457C336.936 166.024 468.254 90.2076 418.856 -3.36806C418.335 -4.27019 418.194 -5.34229 418.464 -6.34851C418.734 -7.35473 419.392 -8.21264 420.294 -8.73351C421.196 -9.25438 422.268 -9.39555 423.275 -9.12595C424.281 -8.85636 425.139 -8.19809 425.66 -7.29596L425.645 -7.27445ZM297.401 33.8497C296.654 33.6642 295.87 33.7008 295.143 33.955C294.417 34.2092 293.781 34.6698 293.313 35.2805C292.845 35.8911 292.565 36.6252 292.508 37.3925C292.452 38.1598 292.62 38.927 292.993 39.5999L312.574 73.5152C313.096 74.4167 313.954 75.0743 314.96 75.3433L370.576 90.2358C371.582 90.5047 372.653 90.3634 373.555 89.8429C374.456 89.3224 375.114 88.4652 375.384 87.4598L402.5 -13.7286C402.768 -14.7346 402.627 -15.8055 402.11 -16.7086L382.529 -50.6239C382.143 -51.2977 381.565 -51.8416 380.869 -52.1864C380.174 -52.5312 379.391 -52.6614 378.621 -52.5604C377.851 -52.4594 377.129 -52.1318 376.545 -51.6193C375.962 -51.1067 375.544 -50.4323 375.345 -49.6817L349.245 47.7147L297.401 33.8497ZM380.449 -38.4907L394.484 -14.1814L368.806 81.6416L318.556 68.1866L304.521 43.8773L350.985 56.3263C351.991 56.5952 353.062 56.4538 353.964 55.9333C354.865 55.4128 355.523 54.5557 355.793 53.5502L380.449 -38.4907Z" fill="#299007"/>
</g>
</g>
<defs>
<linearGradient id="paint0_linear_6018_13" x1="413" y1="0" x2="102.528" y2="286.217" gradientUnits="userSpaceOnUse">
<stop stop-color="#ABFFA3"/>
<stop offset="1" stop-color="#ECFFE6"/>
</linearGradient>
<linearGradient id="paint1_linear_6018_13" x1="413" y1="0" x2="102.528" y2="286.217" gradientUnits="userSpaceOnUse">
<stop stop-color="#ABFFA3"/>
<stop offset="1" stop-color="#ECFFE6"/>
</linearGradient>
</defs>
</svg>
