<svg width="413" height="177" viewBox="0 0 413 177" fill="none" xmlns="http://www.w3.org/2000/svg">
<rect width="413" height="177" fill="url(#paint0_linear_6018_12)"/>
<mask id="mask0_6018_12" style="mask-type:alpha" maskUnits="userSpaceOnUse" x="0" y="0" width="413" height="175">
<rect width="413" height="175" fill="url(#paint1_linear_6018_12)"/>
</mask>
<g mask="url(#mask0_6018_12)">
<g opacity="0.3">
<path d="M413.631 -63.1858C404.388 -79.2047 391.259 -92.6373 375.455 -102.244C359.652 -111.85 341.683 -117.321 323.208 -118.152C304.732 -118.983 286.345 -115.146 269.743 -106.996C253.141 -98.8461 238.86 -86.6457 228.217 -71.5208C217.574 -56.3958 210.912 -38.8337 208.846 -20.4551C206.781 -2.07651 209.378 16.5263 216.398 33.6364C223.418 50.7466 234.635 65.8128 249.013 77.4445C263.392 89.0763 280.469 96.8988 298.668 100.19C298.552 100.257 337.489 167.43 337.522 167.488C337.909 168.133 338.46 168.663 339.12 169.023C339.78 169.383 340.524 169.56 341.275 169.537C342.026 169.513 342.758 169.289 343.393 168.888C344.029 168.487 344.546 167.924 344.891 167.256L361.46 133.679L398.809 136.095C399.634 136.141 400.453 135.946 401.169 135.533C401.884 135.12 402.463 134.508 402.835 133.771L419.371 100.244L456.732 102.654C457.484 102.693 458.233 102.53 458.901 102.181C459.568 101.832 460.13 101.31 460.527 100.67C460.924 100.03 461.142 99.2945 461.158 98.5413C461.174 97.7881 460.987 97.0445 460.617 96.388L421.763 29.0902C427.209 14.045 429.303 -2.0081 427.898 -17.9468C426.493 -33.8854 421.624 -49.3249 413.631 -63.1858ZM449.538 93.8117L417.198 91.7371C416.373 91.6769 415.55 91.8657 414.834 92.279C414.118 92.6923 413.543 93.311 413.183 94.0549L396.594 127.597L359.24 125.199C358.416 125.139 357.592 125.327 356.877 125.741C356.161 126.154 355.586 126.773 355.226 127.517L340.864 156.555L309.11 101.556C331.445 103.316 353.788 98.261 373.19 87.0591C392.592 75.8573 408.141 59.035 417.785 38.8131L449.538 93.8117ZM369.128 80.0241C345.74 93.527 317.947 97.1861 291.861 90.1965C265.775 83.2069 243.535 66.1411 230.032 42.7534C167.34 -76.8729 334.224 -173.177 406.344 -58.9788C419.822 -35.6061 423.473 -7.83982 416.495 18.2225C409.517 44.2848 392.481 66.5124 369.128 80.0241ZM379.41 -43.4901L376.956 -59.3697C376.827 -60.1923 376.455 -60.9576 375.888 -61.5674C375.321 -62.1771 374.585 -62.6037 373.774 -62.7923L358.084 -66.4665L348.885 -79.7203C348.414 -80.412 347.746 -80.9458 346.968 -81.2524C346.189 -81.559 345.336 -81.6241 344.52 -81.4392L328.878 -77.9312L314.893 -85.9156C314.173 -86.3375 313.342 -86.5298 312.51 -86.4671C311.679 -86.4043 310.886 -86.0893 310.238 -85.5641L297.589 -75.5849C295.773 -75.4339 280.317 -77.5255 279.069 -76.124C277.317 -75.8088 271.241 -61.2239 270.276 -59.8154L255.309 -53.8509C254.534 -53.5427 253.869 -53.0107 253.398 -52.3228C252.927 -51.6349 252.672 -50.8222 252.666 -49.9886L252.588 -33.885L241.691 -22.0241C241.127 -21.4097 240.759 -20.6412 240.634 -19.8169C240.51 -18.9925 240.633 -18.1497 240.99 -17.396L247.868 -2.80242L243.206 12.622C242.965 13.4187 242.967 14.2695 243.214 15.0646C243.461 15.8597 243.94 16.5627 244.59 17.0829L257.131 27.2008L259.649 43.0586C259.775 43.8815 260.144 44.6481 260.709 45.2593C261.274 45.8705 262.01 46.2984 262.82 46.4878L278.503 50.1505L287.702 63.4043C288.174 64.0906 288.841 64.6193 289.617 64.9217C290.393 65.224 291.242 65.2861 292.054 65.0999L307.781 61.6048L321.766 69.5892C322.489 70.0072 323.322 70.1967 324.154 70.1328C324.987 70.0689 325.781 69.7546 326.432 69.2311L339.069 59.2586C340.945 59.104 356.355 61.2223 357.659 59.7574C359.383 59.4739 365.42 44.8494 366.383 43.489L381.35 37.5245C382.126 37.2227 382.793 36.6928 383.263 36.0046C383.733 35.3164 383.983 34.5022 383.981 33.6689L384.059 17.5653L394.95 5.69279C395.52 5.08213 395.892 4.31329 396.017 3.48729C396.142 2.66129 396.014 1.8168 395.65 1.06475L388.772 -13.5289L393.441 -28.9416C393.683 -29.7383 393.682 -30.5892 393.437 -31.3852C393.193 -32.1812 392.716 -32.886 392.068 -33.4092L379.41 -43.4901ZM372.908 -38.0037L384.497 -28.6509L380.173 -14.3813C378.881 -12.1969 386.203 -0.0249013 386.804 2.08796L376.712 13.0662C374.606 14.4831 375.922 28.6063 375.53 30.7668C373.557 31.9056 360.07 35.8244 359.477 38.3331L352.896 51.8018C351.11 51.951 336.826 49.9872 335.584 51.2922C335.403 51.3812 335.229 51.4819 335.062 51.5937L323.37 60.8192C321.228 60.0293 309.778 51.8808 307.45 52.993L292.908 56.2368C291.315 54.6037 284.543 42.2846 281.949 42.2663L267.441 38.8693C266.717 36.7038 265.967 22.7028 263.628 21.5466L252.04 12.1938C252.289 9.94585 257.722 -3.04572 256.129 -5.08103L249.77 -18.4272L259.85 -29.3988C261.956 -30.8157 260.652 -44.9456 261.032 -47.0993C263.005 -48.2382 276.51 -52.1521 277.085 -54.6657L283.659 -68.146C285.927 -68.3721 299.889 -65.9748 301.497 -67.9861L313.188 -77.2115C315.331 -76.4217 326.792 -68.2799 329.109 -69.3853L343.674 -72.6426C345.255 -71.0028 352.038 -58.6904 354.621 -58.6654L369.141 -55.2751C369.845 -53.1444 370.617 -39.0786 372.935 -37.9573L372.908 -38.0037ZM307.178 -35.637L336.46 15.0801L342.493 11.5966C343.45 11.1142 344.554 11.0162 345.581 11.3226C346.607 11.629 347.478 12.3165 348.013 13.2442C348.549 14.1719 348.709 15.2694 348.461 16.3115C348.213 17.3536 347.576 18.2613 346.68 18.8485L327.361 30.0024C326.398 30.5543 325.256 30.7019 324.184 30.4129C323.112 30.124 322.199 29.422 321.644 28.4608C318.83 23.5875 326.26 21.1547 329.208 19.267L299.966 -31.3805L293.933 -27.897C292.976 -27.4147 291.872 -27.3166 290.845 -27.623C289.819 -27.9294 288.948 -28.6169 288.413 -29.5446C287.877 -30.4723 287.717 -31.5698 287.965 -32.6119C288.213 -33.654 288.85 -34.5618 289.746 -35.1489L309.065 -46.3028C310.021 -46.7851 311.126 -46.8832 312.153 -46.5768C313.179 -46.2704 314.049 -45.5829 314.585 -44.6552C315.121 -43.7275 315.281 -42.63 315.033 -41.5879C314.785 -40.5458 314.148 -39.638 313.252 -39.0509L307.178 -35.637Z" fill="#FAA013"/>
</g>
</g>
<defs>
<linearGradient id="paint0_linear_6018_12" x1="413" y1="0" x2="99.2892" y2="285.934" gradientUnits="userSpaceOnUse">
<stop stop-color="#FFF0C1"/>
<stop offset="1" stop-color="#FFF8EE"/>
</linearGradient>
<linearGradient id="paint1_linear_6018_12" x1="413" y1="0" x2="102.528" y2="286.217" gradientUnits="userSpaceOnUse">
<stop stop-color="#ABFFA3"/>
<stop offset="1" stop-color="#ECFFE6"/>
</linearGradient>
</defs>
</svg>
