<svg width="413" height="177" viewBox="0 0 413 177" fill="none" xmlns="http://www.w3.org/2000/svg">
<rect width="413" height="177" fill="url(#paint0_linear_6018_14)"/>
<mask id="mask0_6018_14" style="mask-type:alpha" maskUnits="userSpaceOnUse" x="0" y="0" width="413" height="175">
<path d="M0 24C0 10.7452 10.7452 0 24 0H389C402.255 0 413 10.7452 413 24V175H0V24Z" fill="url(#paint1_linear_6018_14)"/>
</mask>
<g mask="url(#mask0_6018_14)">
<g opacity="0.3">
<path d="M390.094 -87.8659C387.555 -86.3882 385.406 -84.3268 383.823 -81.8527C382.24 -79.3785 381.27 -76.5628 380.993 -73.6388C380.715 -70.7148 381.139 -67.7669 382.228 -65.0392C383.317 -62.3115 385.04 -59.8826 387.255 -57.9539L367.156 -22.2735L296.751 -68.7469C297.686 -72.2761 297.554 -76.0031 296.373 -79.4576C295.192 -82.9121 293.014 -85.9395 290.114 -88.1577C287.215 -90.376 283.723 -91.6858 280.08 -91.9219C276.437 -92.158 272.805 -91.3098 269.643 -89.4844C266.482 -87.659 263.931 -84.9381 262.314 -81.6649C260.697 -78.3917 260.085 -74.7129 260.557 -71.0926C261.028 -67.4723 262.561 -64.0726 264.962 -61.3224C267.363 -58.5723 270.525 -56.5948 274.049 -55.6396L279.052 28.5426L238.064 28.1309C237.495 25.2556 236.251 22.5569 234.433 20.2574C232.616 17.9579 230.278 16.1236 227.612 14.9059C224.946 13.6882 222.028 13.1221 219.1 13.2542C216.172 13.3862 213.318 14.2128 210.772 15.6656C206.534 18.1291 203.449 22.1753 202.194 26.9139C200.94 31.6525 201.619 36.6954 204.082 40.9332C206.546 45.171 210.592 48.2566 215.331 49.5112C220.069 50.7658 225.112 50.0866 229.35 47.623L313.111 140.999C313.678 141.632 314.446 142.051 315.285 142.184C316.124 142.318 316.984 142.159 317.72 141.734L445.798 67.7876C446.53 67.362 447.094 66.6977 447.394 65.9061C447.694 65.1144 447.713 64.2437 447.447 63.4398L408.459 -55.8364C412.456 -58.3949 415.316 -62.393 416.446 -67.0025C417.576 -71.612 416.89 -76.4795 414.529 -80.5967C412.168 -84.7139 408.314 -87.7652 403.765 -89.1184C399.216 -90.4717 394.321 -90.0232 390.094 -87.8659ZM273.294 -83.0955C275.841 -84.5664 278.869 -84.965 281.71 -84.2036C284.552 -83.4422 286.974 -81.5833 288.445 -79.0357C289.916 -76.4881 290.315 -73.4606 289.553 -70.6191C288.792 -67.7777 286.933 -65.355 284.385 -63.8842C281.838 -62.4133 278.81 -62.0148 275.969 -62.7761C273.127 -63.5375 270.705 -65.3964 269.234 -67.944C267.763 -70.4916 267.365 -73.5191 268.126 -76.3606C268.887 -79.2021 270.746 -81.6247 273.294 -83.0955ZM210.382 37.1945C209.019 34.6527 208.699 31.6803 209.489 28.9066C210.279 26.133 212.118 23.7756 214.616 22.3336C217.113 20.8915 220.074 20.478 222.871 21.1805C225.668 21.883 228.082 23.6463 229.602 26.0974C230.965 28.6392 231.285 31.6116 230.495 34.3853C229.705 37.159 227.866 39.5163 225.369 40.9583C222.871 42.4004 219.91 42.8139 217.113 42.1114C214.316 41.4089 211.902 39.6456 210.382 37.1945ZM439.521 62.9286L316.641 133.873L234.829 42.6407C236.382 40.5274 237.47 38.1093 238.021 35.5454L282.964 36.0011C283.472 36.0109 283.977 35.9145 284.447 35.7181C284.916 35.5217 285.339 35.2296 285.689 34.8605C286.035 34.491 286.303 34.0551 286.477 33.579C286.65 33.1029 286.725 32.5966 286.697 32.0908L281.458 -55.1862C286.187 -55.8366 290.473 -58.3114 293.401 -62.0813L366.366 -13.906C366.792 -13.6297 367.27 -13.4423 367.77 -13.3554C368.271 -13.2684 368.783 -13.2835 369.278 -13.3998C369.769 -13.5219 370.23 -13.7431 370.633 -14.0499C371.035 -14.3566 371.371 -14.7424 371.618 -15.1836L393.695 -54.3334C396.19 -53.5098 398.832 -53.2308 401.443 -53.5154L439.521 62.9286ZM404.864 -62.2826C402.317 -60.8117 399.289 -60.4131 396.448 -61.1745C393.606 -61.9359 391.184 -63.7948 389.713 -66.3424C388.242 -68.89 387.843 -71.9175 388.605 -74.759C389.366 -77.6004 391.225 -80.023 393.773 -81.4939C396.32 -82.9647 399.348 -83.3633 402.189 -82.6019C405.031 -81.8406 407.453 -79.9816 408.924 -77.434C410.395 -74.8865 410.794 -71.8589 410.032 -69.0175C409.271 -66.176 407.412 -63.7534 404.864 -62.2826ZM472.741 74.9986L310.494 168.672C309.649 169.1 308.673 169.188 307.766 168.918C306.858 168.648 306.089 168.041 305.616 167.221C305.142 166.401 305.001 165.431 305.221 164.511C305.441 163.59 306.005 162.789 306.798 162.271L469.045 68.598C469.89 68.1702 470.866 68.0821 471.773 68.3519C472.68 68.6218 473.45 69.229 473.923 70.0488C474.396 70.8686 474.538 71.8385 474.318 72.7592C474.098 73.6799 473.533 74.4813 472.741 74.9986ZM375.021 9.10325L349.935 19.0967L327.46 4.09205C326.878 3.76954 326.223 3.6031 325.557 3.60893C324.892 3.61475 324.24 3.79263 323.663 4.12526C323.087 4.4579 322.607 4.93397 322.269 5.50719C321.932 6.0804 321.748 6.73124 321.736 7.39641L323.503 34.3574L302.296 51.0908C301.754 51.5187 301.343 52.0896 301.109 52.7388C300.875 53.3881 300.827 54.0899 300.971 54.7649C301.114 55.44 301.444 56.0615 301.922 56.5591C302.401 57.0567 303.009 57.4106 303.677 57.5809L329.851 64.2312L339.18 89.5983C339.418 90.2458 339.833 90.8135 340.378 91.237C340.923 91.6605 341.575 91.9228 342.261 91.9941C342.948 92.0655 343.64 91.943 344.26 91.6406C344.88 91.3383 345.403 90.8681 345.77 90.2835L360.185 67.4488L387.225 66.413C387.914 66.3881 388.583 66.1703 389.155 65.7844C389.727 65.3986 390.179 64.8601 390.46 64.2301C390.741 63.6002 390.841 62.904 390.746 62.2205C390.652 61.5371 390.367 60.8938 389.926 60.3638L372.604 39.5475L379.931 13.5557C380.11 12.8938 380.102 12.1955 379.909 11.5376C379.716 10.8798 379.346 10.288 378.838 9.82756C378.33 9.36708 377.705 9.05578 377.031 8.92798C376.358 8.80018 375.662 8.86083 375.021 9.10325ZM364.991 39.4025C364.814 39.9845 364.786 40.6013 364.908 41.1972C365.03 41.793 365.298 42.349 365.689 42.8149L379.407 59.3272L357.957 60.1755C357.359 60.2008 356.777 60.3703 356.258 60.6694C355.74 60.9686 355.302 61.3887 354.981 61.8937L343.522 80.0456L336.08 59.9095C335.871 59.339 335.523 58.8293 335.068 58.426C334.613 58.0228 334.066 57.7385 333.474 57.5985L312.678 52.3083L329.521 39.0098C329.993 38.6407 330.368 38.1618 330.613 37.6147C330.858 37.0676 330.966 36.469 330.927 35.8709L329.522 14.4496L347.381 26.3708C347.879 26.7047 348.452 26.9114 349.048 26.9728C349.644 27.0342 350.247 26.9485 350.802 26.7231L370.741 18.7855L364.991 39.4025Z" fill="#C72F9B"/>
</g>
</g>
<defs>
<linearGradient id="paint0_linear_6018_14" x1="413" y1="0" x2="99.2892" y2="285.934" gradientUnits="userSpaceOnUse">
<stop stop-color="#FFC2D2"/>
<stop offset="1" stop-color="#FFEDFA"/>
</linearGradient>
<linearGradient id="paint1_linear_6018_14" x1="413" y1="0" x2="102.528" y2="286.217" gradientUnits="userSpaceOnUse">
<stop stop-color="#ABFFA3"/>
<stop offset="1" stop-color="#ECFFE6"/>
</linearGradient>
</defs>
</svg>
