<svg width="603" height="715" viewBox="0 0 603 715" fill="none" xmlns="http://www.w3.org/2000/svg">
<circle cx="263.5" cy="345.5" r="234.5" fill="url(#paint0_linear_2048_39)"/>
<circle cx="263.5" cy="345.5" r="263" stroke="url(#paint1_linear_2048_39)"/>
<path d="M13.9956 140.886C13.2477 141.282 12.3991 140.588 12.5503 139.702L14.1584 130.242L7.33258 123.531C6.69514 122.903 7.02645 121.755 7.88089 121.631L17.3707 120.239L21.6022 111.585C21.9839 110.805 23.0166 110.805 23.3983 111.585L27.6298 120.239L37.1196 121.631C37.9741 121.755 38.3054 122.903 37.666 123.531L30.8421 130.242L32.4503 139.702C32.6014 140.588 31.7528 141.282 31.0049 140.886L22.4973 136.374L13.9956 140.886Z" fill="url(#paint2_linear_2048_39)"/>
<path d="M11.062 559.935C10.6277 560.16 10.135 559.767 10.2227 559.264L11.1565 553.904L7.19311 550.101C6.82299 549.745 7.01536 549.094 7.51148 549.024L13.0217 548.235L15.4787 543.331C15.7003 542.89 16.3 542.89 16.5216 543.331L18.9786 548.235L24.4888 549.024C24.9849 549.094 25.1773 549.745 24.8061 550.101L20.8438 553.904L21.7776 559.264C21.8653 559.767 21.3726 560.16 20.9383 559.935L15.9985 557.379L11.062 559.935Z" fill="url(#paint3_linear_2048_39)"/>
<path d="M173.385 714.943C173.023 715.141 172.612 714.794 172.686 714.351L173.464 709.621L170.161 706.265C169.852 705.951 170.013 705.377 170.426 705.315L175.018 704.619L177.066 700.292C177.25 699.903 177.75 699.903 177.935 700.292L179.982 704.619L184.574 705.315C184.987 705.377 185.148 705.951 184.838 706.265L181.537 709.621L182.315 714.351C182.388 714.794 181.977 715.141 181.615 714.943L177.499 712.687L173.385 714.943Z" fill="url(#paint4_linear_2048_39)"/>
<path d="M475.19 122.913C474.635 123.216 474.006 122.684 474.118 122.005L475.311 114.752L470.247 109.607C469.774 109.125 470.02 108.245 470.654 108.15L477.694 107.083L480.834 100.448C481.117 99.8505 481.883 99.8505 482.166 100.448L485.306 107.083L492.347 108.15C492.981 108.245 493.227 109.125 492.752 109.607L487.689 114.752L488.882 122.005C488.995 122.684 488.365 123.216 487.81 122.913L481.498 119.454L475.19 122.913Z" fill="url(#paint5_linear_2048_39)"/>
<path d="M398.739 20.9202C398.232 21.1974 397.657 20.7116 397.76 20.0914L398.849 13.4697L394.225 8.77141C393.793 8.33182 394.018 7.52825 394.597 7.44145L401.025 6.46709L403.892 0.409486C404.15 -0.136495 404.85 -0.136495 405.109 0.409486L407.975 6.46709L414.404 7.44145C414.982 7.52825 415.207 8.33182 414.774 8.77141L410.151 13.4697L411.24 20.0914C411.343 20.7116 410.768 21.1974 410.261 20.9202L404.498 17.7619L398.739 20.9202Z" fill="url(#paint6_linear_2048_39)"/>
<path d="M589.836 168.935C589.426 169.16 588.961 168.767 589.044 168.264L589.926 162.904L586.182 159.101C585.833 158.745 586.015 158.094 586.483 158.024L591.687 157.235L594.008 152.331C594.217 151.89 594.783 151.89 594.993 152.331L597.313 157.235L602.517 158.024C602.986 158.094 603.167 158.745 602.817 159.101L599.075 162.904L599.957 168.264C600.039 168.767 599.574 169.16 599.164 168.935L594.499 166.379L589.836 168.935Z" fill="url(#paint7_linear_2048_39)"/>
<path d="M530.159 54.9468C529.822 55.1316 529.438 54.8077 529.507 54.3943L530.233 49.9798L527.15 46.8476C526.862 46.5545 527.012 46.0188 527.398 45.961L531.684 45.3114L533.595 41.273C533.767 40.909 534.233 40.909 534.406 41.273L536.317 45.3114L540.602 45.961C540.988 46.0188 541.138 46.5545 540.849 46.8476L537.767 49.9798L538.494 54.3943C538.562 54.8077 538.179 55.1316 537.841 54.9468L533.999 52.8413L530.159 54.9468Z" fill="url(#paint8_linear_2048_39)"/>
<defs>
<linearGradient id="paint0_linear_2048_39" x1="492" y1="129" x2="45" y2="559" gradientUnits="userSpaceOnUse">
<stop stop-color="#CAD4E4"/>
<stop offset="1" stop-color="#B1BDD2" stop-opacity="0"/>
</linearGradient>
<linearGradient id="paint1_linear_2048_39" x1="108" y1="62" x2="676" y2="662" gradientUnits="userSpaceOnUse">
<stop stop-color="#6A7994" stop-opacity="0"/>
<stop offset="1" stop-color="#8E9AB1"/>
</linearGradient>
<linearGradient id="paint2_linear_2048_39" x1="38" y1="126" x2="7" y2="126" gradientUnits="userSpaceOnUse">
<stop stop-color="#F48B1F"/>
<stop offset="1" stop-color="#FFA445"/>
</linearGradient>
<linearGradient id="paint3_linear_2048_39" x1="24.7697" y1="543.652" x2="8.55772" y2="560.165" gradientUnits="userSpaceOnUse">
<stop stop-color="#CAD4E4"/>
<stop offset="1" stop-color="#B1BDD2" stop-opacity="0"/>
</linearGradient>
<linearGradient id="paint4_linear_2048_39" x1="184.808" y1="700.576" x2="170.512" y2="714.328" gradientUnits="userSpaceOnUse">
<stop stop-color="#CAD4E4"/>
<stop offset="1" stop-color="#B1BDD2" stop-opacity="0"/>
</linearGradient>
<linearGradient id="paint5_linear_2048_39" x1="492.706" y1="100.883" x2="470.785" y2="121.97" gradientUnits="userSpaceOnUse">
<stop stop-color="#CAD4E4"/>
<stop offset="1" stop-color="#B1BDD2" stop-opacity="0"/>
</linearGradient>
<linearGradient id="paint6_linear_2048_39" x1="415" y1="10.5" x2="394" y2="10.5" gradientUnits="userSpaceOnUse">
<stop stop-color="#F48B1F"/>
<stop offset="1" stop-color="#FFA445"/>
</linearGradient>
<linearGradient id="paint7_linear_2048_39" x1="603" y1="160.5" x2="586" y2="160.5" gradientUnits="userSpaceOnUse">
<stop stop-color="#F48B1F"/>
<stop offset="1" stop-color="#FFA445"/>
</linearGradient>
<linearGradient id="paint8_linear_2048_39" x1="541" y1="48" x2="527" y2="48" gradientUnits="userSpaceOnUse">
<stop stop-color="#F48B1F"/>
<stop offset="1" stop-color="#FFA445"/>
</linearGradient>
</defs>
</svg>
