<svg width="351" height="452" viewBox="0 0 351 452" fill="none" xmlns="http://www.w3.org/2000/svg">
<circle cx="175.5" cy="217.5" r="156.5" fill="url(#paint0_linear_4036_16)"/>
<circle cx="175.5" cy="217.5" r="175" stroke="url(#paint1_linear_4036_16)"/>
<path d="M15.2876 64.9316C14.8293 65.1692 14.3091 64.7528 14.4018 64.2212L15.3874 58.5454L11.2038 54.5184C10.8132 54.1416 11.0162 53.4528 11.5399 53.3784L17.3563 52.5432L19.9498 47.351C20.1837 46.883 20.8166 46.883 21.0506 47.351L23.6441 52.5432L29.4604 53.3784C29.9841 53.4528 30.1872 54.1416 29.7953 54.5184L25.6129 58.5454L26.5985 64.2212C26.6912 64.7528 26.171 65.1692 25.7127 64.9316L20.4984 62.2245L15.2876 64.9316Z" fill="url(#paint2_linear_4036_16)"/>
<path d="M15.062 451.935C14.6277 452.16 14.135 451.767 14.2227 451.264L15.1565 445.904L11.1931 442.101C10.823 441.745 11.0154 441.094 11.5115 441.024L17.0217 440.235L19.4787 435.331C19.7003 434.89 20.3 434.89 20.5216 435.331L22.9786 440.235L28.4888 441.024C28.9849 441.094 29.1773 441.745 28.8061 442.101L24.8438 445.904L25.7776 451.264C25.8653 451.767 25.3726 452.16 24.9383 451.935L19.9985 449.379L15.062 451.935Z" fill="url(#paint3_linear_4036_16)"/>
<path d="M337.385 398.943C337.023 399.141 336.612 398.794 336.686 398.351L337.464 393.621L334.161 390.265C333.852 389.951 334.013 389.377 334.426 389.315L339.018 388.619L341.066 384.292C341.25 383.903 341.75 383.903 341.935 384.292L343.982 388.619L348.574 389.315C348.987 389.377 349.148 389.951 348.838 390.265L345.537 393.621L346.315 398.351C346.388 398.794 345.977 399.141 345.615 398.943L341.499 396.687L337.385 398.943Z" fill="url(#paint4_linear_4036_16)"/>
<path d="M333.836 73.9354C333.426 74.1598 332.961 73.7665 333.044 73.2645L333.926 67.904L330.182 64.1007C329.833 63.7448 330.015 63.0943 330.483 63.024L335.687 62.2353L338.008 57.3315C338.217 56.8895 338.783 56.8895 338.993 57.3315L341.313 62.2353L346.517 63.024C346.986 63.0943 347.167 63.7448 346.817 64.1007L343.075 67.904L343.957 73.2645C344.039 73.7665 343.574 74.1598 343.164 73.9354L338.499 71.3787L333.836 73.9354Z" fill="url(#paint5_linear_4036_16)"/>
<path d="M300.385 20.943C300.023 21.141 299.612 20.794 299.686 20.351L300.464 15.6212L297.161 12.2653C296.852 11.9513 297.013 11.3773 297.426 11.3153L302.018 10.6193L304.066 6.29249C304.25 5.9025 304.75 5.9025 304.935 6.29249L306.982 10.6193L311.574 11.3153C311.987 11.3773 312.148 11.9513 311.838 12.2653L308.537 15.6212L309.315 20.351C309.388 20.794 308.977 21.141 308.615 20.943L304.499 18.6871L300.385 20.943Z" fill="url(#paint6_linear_4036_16)"/>
<path d="M69.2567 29.962C69.0154 30.094 68.7417 29.8627 68.7904 29.5673L69.3092 26.4141L67.1073 24.1769C66.9017 23.9675 67.0085 23.5849 67.2842 23.5435L70.3454 23.0796L71.7104 20.195C71.8335 19.935 72.1666 19.935 72.2898 20.195L73.6548 23.0796L76.716 23.5435C76.9916 23.5849 77.0985 23.9675 76.8923 24.1769L74.691 26.4141L75.2098 29.5673C75.2585 29.8627 74.9848 30.094 74.7435 29.962L71.9991 28.4581L69.2567 29.962Z" fill="url(#paint7_linear_4036_16)"/>
<path d="M20.031 8.9658C19.8139 9.0846 19.5675 8.8764 19.6114 8.61061L20.0782 5.77271L18.0966 3.75918C17.9115 3.57078 18.0077 3.22639 18.2557 3.18919L21.0109 2.77161L22.2394 0.175494C22.3502 -0.0584981 22.65 -0.0584981 22.7608 0.175494L23.9893 2.77161L26.7444 3.18919C26.9925 3.22639 27.0887 3.57078 26.903 3.75918L24.9219 5.77271L25.3888 8.61061C25.4327 8.8764 25.1863 9.0846 24.9692 8.9658L22.4992 7.61225L20.031 8.9658Z" fill="url(#paint8_linear_4036_16)"/>
<defs>
<linearGradient id="paint0_linear_4036_16" x1="327.996" y1="73.0128" x2="29.678" y2="359.985" gradientUnits="userSpaceOnUse">
<stop stop-color="#CAD4E4"/>
<stop offset="1" stop-color="#B1BDD2" stop-opacity="0"/>
</linearGradient>
<linearGradient id="paint1_linear_4036_16" x1="71.9317" y1="28.6793" x2="450.239" y2="428.3" gradientUnits="userSpaceOnUse">
<stop stop-color="#6A7994" stop-opacity="0"/>
<stop offset="1" stop-color="#8E9AB1"/>
</linearGradient>
<linearGradient id="paint2_linear_4036_16" x1="30" y1="56" x2="11" y2="56" gradientUnits="userSpaceOnUse">
<stop stop-color="#F48B1F"/>
<stop offset="1" stop-color="#FFA445"/>
</linearGradient>
<linearGradient id="paint3_linear_4036_16" x1="28.7697" y1="435.652" x2="12.5577" y2="452.165" gradientUnits="userSpaceOnUse">
<stop stop-color="#CAD4E4"/>
<stop offset="1" stop-color="#B1BDD2" stop-opacity="0"/>
</linearGradient>
<linearGradient id="paint4_linear_4036_16" x1="348.808" y1="384.576" x2="334.512" y2="398.328" gradientUnits="userSpaceOnUse">
<stop stop-color="#CAD4E4"/>
<stop offset="1" stop-color="#B1BDD2" stop-opacity="0"/>
</linearGradient>
<linearGradient id="paint5_linear_4036_16" x1="346.783" y1="57.6525" x2="330.58" y2="73.2388" gradientUnits="userSpaceOnUse">
<stop stop-color="#CAD4E4"/>
<stop offset="1" stop-color="#B1BDD2" stop-opacity="0"/>
</linearGradient>
<linearGradient id="paint6_linear_4036_16" x1="312" y1="13.5" x2="297" y2="13.5" gradientUnits="userSpaceOnUse">
<stop stop-color="#F48B1F"/>
<stop offset="1" stop-color="#FFA445"/>
</linearGradient>
<linearGradient id="paint7_linear_4036_16" x1="77" y1="25" x2="67" y2="25" gradientUnits="userSpaceOnUse">
<stop stop-color="#F48B1F"/>
<stop offset="1" stop-color="#FFA445"/>
</linearGradient>
<linearGradient id="paint8_linear_4036_16" x1="27" y1="4.5" x2="18" y2="4.5" gradientUnits="userSpaceOnUse">
<stop stop-color="#F48B1F"/>
<stop offset="1" stop-color="#FFA445"/>
</linearGradient>
</defs>
</svg>
