<svg width="24" height="24" viewBox="0 0 24 24" fill="none" xmlns="http://www.w3.org/2000/svg">
<g clip-path="url(#clip0_4004_1168)">
<mask id="mask0_4004_1168" style="mask-type:luminance" maskUnits="userSpaceOnUse" x="0" y="0" width="24" height="24">
<path d="M12 24C18.6274 24 24 18.6274 24 12C24 5.37258 18.6274 0 12 0C5.37258 0 0 5.37258 0 12C0 18.6274 5.37258 24 12 24Z" fill="white"/>
</mask>
<g mask="url(#mask0_4004_1168)">
<path d="M36.0001 11.964C36.0001 15.564 36.0001 19.212 36.0001 22.836C35.9625 23.3236 35.743 23.7793 35.3852 24.1128C35.0273 24.4462 34.5572 24.6329 34.0681 24.636C33.9481 24.636 33.8161 24.636 33.6961 24.636H-9.69586C-10.071 24.672 -10.4491 24.6109 -10.7937 24.4585C-11.1384 24.3062 -11.438 24.0677 -11.6639 23.766C-11.8759 23.4899 -11.9956 23.154 -12.0059 22.806C-12.0059 19.182 -12.0059 15.558 -12.0059 11.934C-11.8716 11.8232 -11.6993 11.7693 -11.5259 11.784C-11.3639 11.784 -11.2079 11.784 -11.0519 11.784H35.0401C35.3641 11.814 35.7061 11.73 36.0001 11.964Z" fill="#FDCE24"/>
<path d="M36 11.964H-12C-12 8.36398 -12 4.72198 -12 1.09798C-11.9945 0.86158 -11.9426 0.628572 -11.847 0.412266C-11.7515 0.195962 -11.6143 0.000599205 -11.4432 -0.162659C-11.2722 -0.325917 -11.0706 -0.453871 -10.8501 -0.53921C-10.6296 -0.624549 -10.3944 -0.665601 -10.158 -0.660021C4.614 -0.660021 19.386 -0.660021 34.158 -0.660021C34.6332 -0.663505 35.0911 -0.482003 35.4349 -0.153909C35.7787 0.174185 35.9813 0.623137 36 1.09798C36 4.72198 36 8.33998 36 11.964Z" fill="#347FC0"/>
</g>
</g>
<defs>
<clipPath id="clip0_4004_1168">
<rect width="24" height="24" fill="white"/>
</clipPath>
</defs>
</svg>
